#N canvas 406 167 1087 922 12;
#X obj 110 475 *~;
#X obj 268 462 sig~;
#X obj 119 584 expr~ if($i2!=0 \, abs($v1)*2-1 \, $v1);
#N canvas 0 22 450 278 (subpatch) 0;
#X array vis-\$0 200 float 5;
#A 0 0 0 0 0 0 0 0 0 0 0 0 0 0 0 0 0 0 0 0 0 0 0 0 0 0 0 0 0 0 0 0 0 0 0 0 0 0 0 0 0 0 0 0 0 0 0 0 0 0 0 0 0 0 0 0 0 0 0 0 0 0 0 0 0 0 0 0 0 0 0 0 0 0 0 0 0 0 0 0 0 0 0 0 0 0 0 0 0 0 0 0 0 0 0 0 0 0 0 0 0 0 0 0 0 0 0 0 0 0 0 0 0 0 0 0 0 0 0 0 0 0 0 0 0 0 0 0 0 0 0 0 0 0 0 0 0 0 0 0 0 0 0 0 0 0 0 0 0 0 0 0 0 0 0 0 0 0 0 0 0 0 0 0 0 0 0 0 0 0 0 0 0 0 0 0 0 0 0 0 0 0 0 0 0 0 0 0 0 0 0 0 0 0 0 0 0 0 0 0 0;
#X coords 0 1 199 -1 80 80 1 0 0;
#X restore 214 213 graph;
#X obj 55 449 expr~ if($v1<=$v2 \, $v1 \, 0);
#X msg 201 319 1 1 0;
#X msg 255 319 1 1 1;
#X msg 207 346 0.5 1 1;
#X msg 276 345 0.25 1 1;
#X msg 209 373 0.5 2 0;
#X msg 279 373 0.5 2 1;
#X obj 190 544 cos~;
#X obj 190 509 +~ 0.25;
#X text -38 452 Pulse Width;
#X obj 470 588 cnv 19 126 76 empty empty empty 20 12 0 12 #e0e0e0 #404040 0;
#X text 102 201 Wave Type;
#X obj 273 675 *~ 0.8;
#X text 141 479 Phase Multiply;
#X text 95 522 Cosine->Sine;
#X obj 76 348 inlet~;
#X obj 9 346 phasor~;
#X obj 107 124 nbx 5 17 0 48 0 1 empty empty empty 0 -10 0 12 #fcfcfc #000000 #000000 4 256;
#X obj 107 146 nbx 5 17 1 48 0 1 empty empty empty 0 -10 0 12 #fcfcfc #000000 #000000 4 256;
#X obj 43 150 /;
#X obj 36 125 t;
#X text 105 104 Pitch Fraction;
#X obj 89 384 *~;
#X obj 229 124 nbx 5 17 0.001 100 1 1 empty empty Mod\ Depth 0 -10 0 12 #fcfcfc #000000 #000000 1 256;
#X obj 60 417 +~;
#X obj 132 740 outlet~;
#X obj 202 698 outlet~;
#X obj 107 223 bng 19 250 50 0 empty empty empty 0 -10 0 12 #fcfcfc #000000 #000000;
#X obj 107 247 bng 19 250 50 0 empty empty empty 0 -10 0 12 #fcfcfc #000000 #000000;
#X obj 107 272 bng 19 250 50 0 empty empty empty 0 -10 0 12 #fcfcfc #000000 #000000;
#X obj 139 222 bng 19 250 50 0 empty empty empty 0 -10 0 12 #fcfcfc #000000 #000000;
#X obj 139 246 bng 19 250 50 0 empty empty empty 0 -10 0 12 #fcfcfc #000000 #000000;
#X obj 139 269 bng 19 250 50 0 empty empty empty 0 -10 0 12 #fcfcfc #000000 #000000;
#X obj 249 413 unpack float float float;
#X obj 295 731 tabwrite~ vis-\$0;
#X obj 349 464 bng 19 250 50 0 empty empty empty 0 -10 0 12 #fcfcfc #000000 #000000;
#X obj 60 67 loadbang;
#X obj 9 183 inlet;
#X obj 30 250 *;
#X obj 37 215 t;
#X obj 308 237 metro 100;
#X obj 277 185 tgl 19 0 empty empty empty 0 -10 0 12 #fcfcfc #000000 #000000 0 1;
#X obj 107 168 nbx 4 17 0 48 0 0 empty empty empty 0 -10 0 12 #ffffff #000000 #000000 0 256;
#X obj 167 168 nbx 4 17 0 20000 0 0 empty empty empty 0 -10 0 12 #fcfcfc #000000 #000000 0 256;
#X obj 179 207 vsl 19 80 1 7 0 1 empty empty empty 0 -9 0 12 #fcfcfc #000000 #000000 3817 1;
#X obj 3 631 expr~ min(10000 \, pow(2 \, $f2)*$v1);
#X obj 94 675 lop~;
#X text 157 185 Brightness;
#X text -36 152 Calc Pitch;
#X text 29 324 Sum Phase;
#X text 346 354 Wave Type Presets;
#X text 137 654 Filter;
#X msg 320 86 FAZEOID;
#X msg 321 118 INPUTS: Pitch \, Phase Modulation;
#X msg 321 151 OUTPUTS: Waveform \, Sum Phase;
#X text 30 586 Apply Diode;
#X obj 456 466 route pulseWidth phaseMultiply diode;
#X connect 0 0 12 0;
#X connect 1 0 0 1;
#X connect 2 0 50 0;
#X connect 4 0 0 0;
#X connect 5 0 37 0;
#X connect 6 0 37 0;
#X connect 7 0 37 0;
#X connect 8 0 37 0;
#X connect 9 0 37 0;
#X connect 10 0 37 0;
#X connect 11 0 2 0;
#X connect 12 0 11 0;
#X connect 16 0 38 0;
#X connect 19 0 26 0;
#X connect 20 0 28 0;
#X connect 21 0 23 0;
#X connect 22 0 24 0;
#X connect 22 0 23 1;
#X connect 23 0 46 0;
#X connect 24 0 23 0;
#X connect 26 0 28 1;
#X connect 27 0 26 1;
#X connect 28 0 4 0;
#X connect 28 0 30 0;
#X connect 31 0 5 0;
#X connect 32 0 7 0;
#X connect 33 0 9 0;
#X connect 34 0 6 0;
#X connect 35 0 8 0;
#X connect 36 0 10 0;
#X connect 37 0 4 1;
#X connect 37 0 39 0;
#X connect 37 1 1 0;
#X connect 37 2 2 1;
#X connect 39 0 38 0;
#X connect 40 0 31 0;
#X connect 40 0 21 0;
#X connect 41 0 42 0;
#X connect 42 0 47 0;
#X connect 43 0 42 0;
#X connect 44 0 38 0;
#X connect 45 0 44 0;
#X connect 46 0 43 0;
#X connect 46 0 42 1;
#X connect 47 0 20 0;
#X connect 47 0 39 0;
#X connect 47 0 49 0;
#X connect 48 0 49 1;
#X connect 48 0 39 0;
#X connect 49 0 50 1;
#X connect 50 0 16 0;
#X connect 50 0 29 0;
#X coords -200 -200 0 0 200 200 2 100 100;
