#N canvas 0 38 1728 1051 12;
#N canvas 0 22 450 278 (subpatch) 0;
#X array scope-\$0 300 float 4;
#X coords 0 1 299 -1 200 140 1 0 0;
#X restore 100 146 graph;
#X obj 357 135 int 1;
#X obj 419 134 + 1;
#X obj 362 197 change;
#X obj 371 226 bng 19 250 50 0 empty empty empty 0 -10 0 12 #fcfcfc #000000 #000000;
#X obj 354 100 threshold~ 0 0 0 0;
#X obj 545 131 cnv 19 200 140 empty empty empty 20 12 0 12 #e0e0e0 #404040 0;
#X obj 348 170 expr floor($i1 / $i2);
#X obj 455 58 inlet~;
#X obj 356 262 tabwrite~ scope-\$0;
#X obj 205 295 nbx 5 17 1 128 0 0 empty empty empty 0 -10 0 12 #fcfcfc #000000 #000000 0 256;
#X text 104 295 Slowdown Rate;
#X obj 320 58 inlet~;
#X connect 1 0 2 0;
#X connect 1 0 7 0;
#X connect 2 0 1 1;
#X connect 3 0 4 0;
#X connect 4 0 9 0;
#X connect 5 1 1 0;
#X connect 7 0 3 0;
#X connect 8 0 5 0;
#X connect 10 0 7 1;
#X connect 12 0 9 0;
#X coords 0 -1 1 1 200 220 1 100 100;
