#N canvas 553 386 941 674 12;
#X obj 311 221 +~;
#X obj 332 251 +~;
#X obj 302 41 inlet~;
#X obj 370 339 outlet~;
#N canvas 169 250 833 474 bandsplit 0;
#X obj 133 19 inlet~;
#X obj 92 174 outlet~;
#X obj 199 180 outlet~;
#X obj 285 183 outlet~;
#X obj 248 136 hip~ 2000;
#X obj 97 132 lop~ 200;
#X obj 173 98 -~;
#X obj 190 130 -~;
#X connect 0 0 5 0;
#X connect 0 0 4 0;
#X connect 0 0 6 0;
#X connect 4 0 3 0;
#X connect 4 0 7 1;
#X connect 5 0 1 0;
#X connect 5 0 6 1;
#X connect 6 0 7 0;
#X connect 7 0 2 0;
#X restore 300 98 pd bandsplit;
#N canvas 771 230 623 692 bandcomp-lo 0;
#X obj 133 84 env~;
#X obj 134 107 dbtorms~;
#X obj 53 182 /~;
#X obj 89 213 *~;
#X obj 119 9 inlet~;
#X obj 113 243 outlet~;
#X obj 180 9 inlet~;
#X obj 131 38 +~;
#X obj 131 61 *~ 0.5;
#X obj 165 169 /~;
#X obj 176 210 *~;
#X obj 197 239 outlet~;
#X obj 236 9 inlet;
#X obj 110 170 pow~;
#X obj 91 134 slop~ 20 0 10 0 20;
#X connect 0 0 1 0;
#X connect 1 0 14 0;
#X connect 2 0 3 0;
#X connect 3 0 5 0;
#X connect 4 0 2 0;
#X connect 4 0 7 0;
#X connect 6 0 7 1;
#X connect 6 0 9 0;
#X connect 7 0 8 0;
#X connect 8 0 0 0;
#X connect 9 0 10 0;
#X connect 10 0 11 0;
#X connect 12 0 13 1;
#X connect 13 0 3 1;
#X connect 13 0 10 1;
#X connect 14 0 2 1;
#X connect 14 0 9 1;
#X connect 14 0 13 0;
#X restore 278 153 pd bandcomp-lo;
#N canvas 308 218 1290 763 limit-drive 0;
#X obj 135 66 env~;
#X obj 107 90 dbtorms~;
#X obj 79 145 /~;
#X obj 83 172 *~;
#X obj 91 274 cos~;
#X text 123 133 RMS Limiter;
#X obj 90 246 clip~ 0 0.5;
#X text 157 224 Overdrive;
#X text 153 197 <- +1 = Odd harmonics \, +1.2 = Even Harmonics;
#X obj 90 196 +~ 1.2;
#X obj 90 219 *~ 0.2;
#X obj 64 117 slop~ 20 0 10 0 20;
#X obj 100 10 inlet~;
#X obj 97 321 outlet~;
#X obj 184 13 inlet;
#X obj 253 157 + 1;
#X obj 263 136 / 5;
#X obj 262 34 pow -1;
#X obj 255 65 / 2;
#X obj 236 5 route limit character release;
#X obj 126 152 clip~ 0 0.8;
#X connect 0 0 1 0;
#X connect 1 0 11 0;
#X connect 2 0 3 0;
#X connect 3 0 9 0;
#X connect 4 0 13 0;
#X connect 6 0 4 0;
#X connect 9 0 10 0;
#X connect 10 0 6 0;
#X connect 11 0 2 1;
#X connect 11 0 20 0;
#X connect 12 0 0 0;
#X connect 12 0 2 0;
#X connect 14 0 19 0;
#X connect 15 0 9 1;
#X connect 16 0 15 0;
#X connect 17 0 11 2;
#X connect 17 0 11 5;
#X connect 17 0 18 0;
#X connect 18 0 11 4;
#X connect 19 0 20 2;
#X connect 19 1 16 0;
#X connect 19 2 17 0;
#X connect 20 0 3 1;
#X restore 316 297 pd limit-drive;
#X obj 410 44 inlet~;
#X obj 452 339 outlet~;
#X obj 445 226 +~;
#X obj 466 256 +~;
#N canvas 42 250 623 692 bandcomp-mid 0;
#X obj 133 84 env~;
#X obj 134 107 dbtorms~;
#X obj 119 9 inlet~;
#X obj 180 9 inlet~;
#X obj 131 38 +~;
#X obj 131 61 *~ 0.5;
#X obj 91 134 slop~ 10 0 10 0 20;
#X obj 53 182 /~;
#X obj 89 213 *~;
#X obj 136 238 outlet~;
#X obj 165 169 /~;
#X obj 176 210 *~;
#X obj 197 239 outlet~;
#X obj 240 9 inlet;
#X obj 93 167 pow~;
#X connect 0 0 1 0;
#X connect 1 0 6 0;
#X connect 2 0 4 0;
#X connect 2 0 7 0;
#X connect 3 0 4 1;
#X connect 3 0 10 0;
#X connect 4 0 5 0;
#X connect 5 0 0 0;
#X connect 6 0 7 1;
#X connect 6 0 10 1;
#X connect 6 0 14 0;
#X connect 7 0 8 0;
#X connect 8 0 9 0;
#X connect 10 0 11 0;
#X connect 11 0 12 0;
#X connect 13 0 14 1;
#X connect 14 0 8 1;
#X connect 14 0 11 1;
#X restore 353 189 pd bandcomp-mid;
#N canvas 42 250 623 692 bandcomp-hi 0;
#X obj 133 84 env~;
#X obj 134 107 dbtorms~;
#X obj 119 9 inlet~;
#X obj 180 9 inlet~;
#X obj 131 38 +~;
#X obj 131 61 *~ 0.5;
#X obj 91 134 slop~ 10 0 10 0 20;
#X obj 53 182 /~;
#X obj 89 213 *~;
#X obj 136 238 outlet~;
#X obj 165 169 /~;
#X obj 176 210 *~;
#X obj 197 239 outlet~;
#X obj 237 10 inlet;
#X obj 93 167 pow~;
#X connect 0 0 1 0;
#X connect 1 0 6 0;
#X connect 2 0 4 0;
#X connect 2 0 7 0;
#X connect 3 0 4 1;
#X connect 3 0 10 0;
#X connect 4 0 5 0;
#X connect 5 0 0 0;
#X connect 6 0 7 1;
#X connect 6 0 10 1;
#X connect 6 0 14 0;
#X connect 7 0 8 0;
#X connect 8 0 9 0;
#X connect 10 0 11 0;
#X connect 11 0 12 0;
#X connect 13 0 14 1;
#X connect 14 0 8 1;
#X connect 14 0 11 1;
#X restore 401 159 pd bandcomp-hi;
#N canvas 169 250 833 474 bandsplit 0;
#X obj 133 19 inlet~;
#X obj 92 174 outlet~;
#X obj 199 180 outlet~;
#X obj 285 183 outlet~;
#X obj 248 136 hip~ 2000;
#X obj 97 132 lop~ 200;
#X obj 173 98 -~;
#X obj 190 130 -~;
#X connect 0 0 5 0;
#X connect 0 0 4 0;
#X connect 0 0 6 0;
#X connect 4 0 3 0;
#X connect 4 0 7 1;
#X connect 5 0 1 0;
#X connect 5 0 6 1;
#X connect 6 0 7 0;
#X connect 7 0 2 0;
#X restore 409 97 pd bandsplit;
#X msg 130 291 limit \$1;
#X msg 158 262 character \$1;
#X msg 116 323 release \$1;
#X obj 93 499 cnv 19 126 76 empty empty empty 20 12 0 12 #e0e0e0 #404040 0;
#X obj 128 60 vsl 19 140 0.5 1.5 0 1 empty empty empty 0 -9 0 12 #fcfcfc #000000 #000000 6900 1;
#X obj 173 69 vsl 19 140 0 1 0 1 empty empty empty 0 -9 0 12 #fcfcfc #000000 #000000 0 1;
#X obj 121 233 nbx 5 17 1 100 1 1 empty empty Release\ (ms) 0 -10 0 12 #fcfcfc #000000 #000000 11.1397 256;
#X obj 215 363 t a;
#X obj 55 313 / 1000;
#X text 134 16 LIMITER;
#X text 30 57 COMPRESSOR;
#X obj 18 95 hsl 100 19 1 3 1 1 empty empty Bass -2 -10 0 12 #fcfcfc #000000 #000000 3900 1;
#X obj 76 79 pow -1;
#X obj 47 -6 loadbang;
#X obj 19 137 hsl 100 19 1 3 1 1 empty empty Midrange -2 -10 0 12 #fcfcfc #000000 #000000 2000 1;
#X obj 19 179 hsl 100 19 1 3 1 1 empty empty Treble -2 -10 0 12 #fcfcfc #000000 #000000 3200 1;
#X text 160 47 Warmth;
#X text 100 34 Saturation;
#X obj 22 35 nbx 5 17 -48 24 0 1 empty empty In\ Gain 0 -10 0 12 #fcfcfc #000000 #000000 0 256;
#X obj 358 16 dbtorms;
#X obj 311 69 *~;
#X obj 409 73 *~;
#X obj 80 118 pow -1;
#X obj 82 160 pow -1;
#X obj 133 438 route release;
#X obj 153 475 nbx 5 17 -1e+37 1e+37 0 0 empty empty empty 0 -10 0 12 #fcfcfc #000000 #000000 0 256;
#N canvas 308 218 1290 763 limit-drive 0;
#X obj 135 66 env~;
#X obj 107 90 dbtorms~;
#X obj 79 145 /~;
#X obj 83 172 *~;
#X obj 91 274 cos~;
#X text 123 133 RMS Limiter;
#X obj 90 246 clip~ 0 0.5;
#X text 157 224 Overdrive;
#X text 153 197 <- +1 = Odd harmonics \, +1.2 = Even Harmonics;
#X obj 90 196 +~ 1.2;
#X obj 90 219 *~ 0.2;
#X obj 64 117 slop~ 20 0 10 0 20;
#X obj 100 10 inlet~;
#X obj 97 321 outlet~;
#X obj 184 13 inlet;
#X obj 253 157 + 1;
#X obj 263 136 / 5;
#X obj 262 34 pow -1;
#X obj 255 65 / 2;
#X obj 236 5 route limit character release;
#X obj 126 152 clip~ 0 0.8;
#X connect 0 0 1 0;
#X connect 1 0 11 0;
#X connect 2 0 3 0;
#X connect 3 0 9 0;
#X connect 4 0 13 0;
#X connect 6 0 4 0;
#X connect 9 0 10 0;
#X connect 10 0 6 0;
#X connect 11 0 2 1;
#X connect 11 0 20 0;
#X connect 12 0 0 0;
#X connect 12 0 2 0;
#X connect 14 0 19 0;
#X connect 15 0 9 1;
#X connect 16 0 15 0;
#X connect 17 0 11 2;
#X connect 17 0 11 5;
#X connect 17 0 18 0;
#X connect 18 0 11 4;
#X connect 19 0 20 2;
#X connect 19 1 16 0;
#X connect 19 2 17 0;
#X connect 20 0 3 1;
#X restore 442 297 pd limit-drive;
#X obj 218 17 + 94;
#X connect 0 0 1 0;
#X connect 1 0 6 0;
#X connect 2 0 34 0;
#X connect 4 0 5 0;
#X connect 4 1 11 0;
#X connect 4 2 12 0;
#X connect 5 0 0 0;
#X connect 5 1 9 0;
#X connect 6 0 3 0;
#X connect 7 0 35 0;
#X connect 9 0 10 0;
#X connect 10 0 40 0;
#X connect 11 0 0 1;
#X connect 11 1 9 1;
#X connect 12 0 1 1;
#X connect 12 1 10 1;
#X connect 13 0 5 1;
#X connect 13 1 11 1;
#X connect 13 2 12 1;
#X connect 14 0 21 0;
#X connect 15 0 21 0;
#X connect 16 0 21 0;
#X connect 18 0 14 0;
#X connect 19 0 15 0;
#X connect 20 0 22 0;
#X connect 21 0 6 1;
#X connect 21 0 40 1;
#X connect 22 0 16 0;
#X connect 25 0 26 0;
#X connect 26 0 5 2;
#X connect 27 0 25 0;
#X connect 27 0 18 0;
#X connect 27 0 19 0;
#X connect 27 0 28 0;
#X connect 27 0 29 0;
#X connect 27 0 32 0;
#X connect 27 0 20 0;
#X connect 28 0 36 0;
#X connect 29 0 37 0;
#X connect 32 0 41 0;
#X connect 33 0 34 1;
#X connect 33 0 35 1;
#X connect 34 0 4 0;
#X connect 35 0 13 0;
#X connect 36 0 11 2;
#X connect 37 0 12 2;
#X connect 38 0 39 0;
#X connect 40 0 8 0;
#X connect 41 0 33 0;
#X coords 0 -1 1 1 200 250 2 10 10;
