#N canvas 561 190 773 695 12;
#X obj 79 98 FazeOsc;
#X obj 149 646 dac~;
#X obj 43 321 FazeOsc;
#X obj 38 66 nbx 5 17 100 2000 1 1 empty empty Pitch 0 -10 0 12 #fcfcfc #000000 #000000 678.41 256;
#X text 565 7;
#X obj 195 565 nbx 5 17 0.01 1 1 1 empty empty Volume 0 -10 0 12 #fcfcfc #000000 #000000 0.155384 256;
#X obj 22 11 loadbang;
#X obj 142 577 *~;
#X obj 266 540 loadbang;
#X connect 0 0 2 1;
#X connect 2 0 7 0;
#X connect 3 0 0 0;
#X connect 3 0 2 0;
#X connect 5 0 7 1;
#X connect 6 0 3 0;
#X connect 7 0 1 0;
#X connect 7 0 1 1;
#X connect 8 0 5 0;
